<?xml version="1.0" encoding="UTF-8"?>
<svg version="1.1" xmlns="http://www.w3.org/2000/svg" width="500" height="500">
<path d="M0 0 C165 0 330 0 500 0 C500 165 500 330 500 500 C335 500 170 500 0 500 C0 335 0 170 0 0 Z " fill="#FEFEFF" transform="translate(0,0)"/>
<path d="M0 0 C3.50265394 2.01813069 6.08844187 4.56850854 8.66796875 7.65234375 C13.35696475 13.09088186 18.46503022 18.10076592 23.5625 23.15234375 C24.5425531 24.12736761 25.5223724 25.10262655 26.50195312 26.078125 C28.87402313 28.43850993 31.2484086 30.7965128 33.625 33.15234375 C36.41307474 31.87974736 38.45786268 30.56843416 40.61328125 28.39453125 C41.15122314 27.85530029 41.68916504 27.31606934 42.2434082 26.76049805 C42.8024585 26.18855713 43.36150879 25.61661621 43.9375 25.02734375 C44.51781982 24.44057861 45.09813965 23.85381348 45.69604492 23.24926758 C49.27340962 19.60770791 52.69515684 15.8704264 56.01953125 11.99609375 C66.43156363 0.03872323 66.43156363 0.03872323 74.78125 -1.15625 C80.51372848 -1.4801743 84.92522477 -0.14387869 89.625 3.15234375 C94.52142897 8.29987164 94.93113338 12.58143421 94.83203125 19.4375 C94.35346747 25.71300611 90.93211439 29.10312098 86.58984375 33.21972656 C84.76366312 35.01595493 83.10573929 36.86454102 81.44921875 38.81640625 C77.40523051 43.47791225 73.07375345 47.81495173 68.6875 52.15234375 C67.51864258 53.31443359 67.51864258 53.31443359 66.32617188 54.5 C64.4280758 56.38645132 62.52766851 58.2705062 60.625 60.15234375 C65.63399774 66.16157817 71.03441859 71.62889995 76.61523438 77.10351562 C94.71787193 94.99787739 94.71787193 94.99787739 94.875 104.46484375 C94.8129833 110.34092644 93.5310173 113.86512299 89.75 118.40234375 C85.18661163 122.16042829 81.0444455 122.39598878 75.3203125 122.515625 C68.12225306 121.54545177 63.94298649 118.05029426 59.125 112.96484375 C58.55676514 112.38114014 57.98853027 111.79743652 57.40307617 111.19604492 C53.94103425 107.61494725 50.61224946 103.93986395 47.390625 100.140625 C43.6719754 95.95303065 39.61957235 92.07457978 35.625 88.15234375 C32.39451252 89.57226925 30.24257512 91.28853762 27.76171875 93.78515625 C26.67793945 94.87183594 26.67793945 94.87183594 25.57226562 95.98046875 C24.45368164 97.11742187 24.45368164 97.11742187 23.3125 98.27734375 C22.57837891 99.01210937 21.84425781 99.746875 21.08789062 100.50390625 C16.95879209 104.66597895 12.99679401 108.91808585 9.19873047 113.38476562 C3.94088746 119.29025482 -0.73254421 122.63651533 -8.75 123.52734375 C-14.51821439 122.93063192 -18.70450687 120.86679722 -22.75 116.71484375 C-26.26506349 111.17185901 -27.68342521 105.6944698 -26.375 99.15234375 C-23.34625324 93.24146816 -19.26446072 88.62869945 -14.54296875 84.02734375 C-13.90635818 83.39497803 -13.26974762 82.7626123 -12.61384583 82.11108398 C-10.60373827 80.11760216 -8.58339586 78.13488191 -6.5625 76.15234375 C-5.18745683 74.79236821 -3.81310111 73.43169723 -2.43945312 72.0703125 C0.90747769 68.75623692 4.26362196 65.45176237 7.625 62.15234375 C6.1468865 56.98950876 2.95947578 54.16261474 -0.80859375 50.56640625 C-2.11012798 49.29307294 -3.41155701 48.01963209 -4.71289062 46.74609375 C-6.76162209 44.75944506 -8.81361125 42.77627275 -10.8684082 40.79589844 C-12.85709236 38.87387809 -14.83318529 36.93955484 -16.80859375 35.00390625 C-17.42117538 34.42138092 -18.03375702 33.83885559 -18.66490173 33.23867798 C-23.60323605 28.38626203 -26.77949135 23.38993128 -26.875 16.21484375 C-26.64704618 9.4073139 -23.55603776 5.33338151 -18.875 0.65234375 C-12.9045511 -1.90642006 -6.1753752 -2.20404016 0 0 Z " fill="#0B7CFF" transform="translate(215.375,131.84765625)"/>
<path d="M0 0 C3.5475 -0.0825 7.095 -0.165 10.75 -0.25 C11.86213867 -0.28641602 12.97427734 -0.32283203 14.12011719 -0.36035156 C21.34176485 -0.44202653 21.34176485 -0.44202653 24.67578125 1.796875 C26.61368057 5.02099068 26.46086948 7.31304414 26 11 C24.5 13.4375 24.5 13.4375 23 15 C23.66 15.515625 24.32 16.03125 25 16.5625 C27 19 27 19 27.5 22.5 C26.92936321 26.49445751 26.14975126 27.59136668 23 30 C20.54724859 31.2263757 18.9494219 31.11415314 16.2109375 31.09765625 C15.36321777 31.09515869 14.51549805 31.09266113 13.64208984 31.09008789 C12.5639502 31.08098389 11.48581055 31.07187988 10.375 31.0625 C6.95125 31.041875 3.5275 31.02125 0 31 C0 20.77 0 10.54 0 0 Z " fill="#1507FF" transform="translate(290,275)"/>
<path d="M0 0 C3.66081315 2.09189323 5.52224364 4.09403606 7 8 C7.13958857 10.62426505 7.18931369 13.13292747 7.125 15.75 C7.11597656 16.44738281 7.10695312 17.14476562 7.09765625 17.86328125 C7.07419888 19.57566958 7.03833104 21.28788004 7 23 C4.69 23 2.38 23 0 23 C-0.33 22.34 -0.66 21.68 -1 21 C-1.66 21.66 -2.32 22.32 -3 23 C-6.05657695 23.57048096 -8.93921194 23.52863352 -12 23 C-15.28175318 20.47031526 -16.69243777 18.92268669 -18 15 C-18.67195988 8.16840786 -18.67195988 8.16840786 -16.953125 5.1796875 C-12.05079194 -0.78962394 -7.36335522 -0.77677013 0 0 Z " fill="#1F11FF" transform="translate(176,283)"/>
<path d="M0 0 C3.68623011 1.61272567 4.75355 2.630325 7 6 C7.54679399 9.71819916 7.5490121 13.28193784 7 17 C4.7984026 19.89683868 3.21405538 21.39297231 0 23 C-4.08555854 23.51436888 -8.21847627 23.92098732 -11.95703125 21.98828125 C-14.59384934 19.85188119 -15.92211726 18.23364822 -17 15 C-17.67195988 8.16840786 -17.67195988 8.16840786 -15.953125 5.1796875 C-11.21524519 -0.58937792 -7.09811224 -0.63715338 0 0 Z " fill="#1C0DFF" transform="translate(341,283)"/>
<path d="M0 0 C2.93423195 1.79646854 4.47205355 2.9441071 6 6 C6.13415472 8.6723621 6.04318541 11.32250488 6 14 C1.38 14.33 -3.24 14.66 -8 15 C-6.26043342 16.73956658 -3.8063378 16.37190386 -1.4375 16.5625 C-0.42558594 16.64628906 0.58632812 16.73007812 1.62890625 16.81640625 C2.80259766 16.90728516 2.80259766 16.90728516 4 17 C4 18.98 4 20.96 4 23 C-7.81521135 23.68826474 -7.81521135 23.68826474 -11.625 21.25 C-15.33351163 17.73667319 -15.90326468 16.21886507 -16.3125 11.0625 C-16.21457503 7.30637807 -15.37761182 4.9940297 -13 2 C-8.76447144 -0.82368571 -4.97522686 -0.66653757 0 0 Z " fill="#2012FF" transform="translate(222,283)"/>
<path d="M0 0 C7.92 0 15.84 0 24 0 C24 1.98 24 3.96 24 6 C21.36 6 18.72 6 16 6 C16.33 11.94 16.66 17.88 17 24 C18.32 24.33 19.64 24.66 21 25 C21 26.98 21 28.96 21 31 C17.8125 31.3125 17.8125 31.3125 14 31 C11.36983839 28.8272578 9.52663106 27.05326212 8 24 C7.91691362 22.62451844 7.89263984 21.24514204 7.90234375 19.8671875 C7.90556641 19.06152344 7.90878906 18.25585938 7.91210938 17.42578125 C7.92048828 16.58402344 7.92886719 15.74226563 7.9375 14.875 C7.94201172 14.02550781 7.94652344 13.17601562 7.95117188 12.30078125 C7.96297126 10.20049091 7.98090694 8.1002367 8 6 C5.36 6 2.72 6 0 6 C0 4.02 0 2.04 0 0 Z " fill="#1B0DFF" transform="translate(128,275)"/>
<path d="M0 0 C1.2065625 -0.01933594 1.2065625 -0.01933594 2.4375 -0.0390625 C6.13641797 0.91949856 8.80290654 2.52194455 11 5.625 C11.71250506 8.76763011 11.5720936 11.73599236 11.375 14.9375 C11.34792969 15.77345703 11.32085937 16.60941406 11.29296875 17.47070312 C11.22259563 19.52325247 11.11498322 21.57446591 11 23.625 C8.69 23.625 6.38 23.625 4 23.625 C3.67 18.345 3.34 13.065 3 7.625 C1.02 7.625 -0.96 7.625 -3 7.625 C-3.33 12.905 -3.66 18.185 -4 23.625 C-6.31 23.625 -8.62 23.625 -11 23.625 C-11.16250994 20.72690611 -11.28107636 17.83795149 -11.375 14.9375 C-11.42527344 14.12087891 -11.47554687 13.30425781 -11.52734375 12.46289062 C-11.67044474 6.57189974 -11.67044474 6.57189974 -9.81347656 3.94921875 C-6.76455831 1.21476292 -4.06513461 -0.06514639 0 0 Z " fill="#1E10FF" transform="translate(247,282.375)"/>
<path d="M0 0 C2.31 0 4.62 0 7 0 C7 1.98 7 3.96 7 6 C8.98 6 10.96 6 13 6 C13 7.98 13 9.96 13 12 C11.02 12 9.04 12 7 12 C7 15.63 7 19.26 7 23 C8.98 23 10.96 23 13 23 C13 24.98 13 26.96 13 29 C11.39667209 29.08121924 9.79215974 29.13929134 8.1875 29.1875 C6.84751953 29.23970703 6.84751953 29.23970703 5.48046875 29.29296875 C3 29 3 29 1.1875 27.9375 C-0.65116062 24.93758004 -0.28299327 22.28208875 -0.1875 18.8125 C-0.16042969 17.54019531 -0.13335937 16.26789063 -0.10546875 14.95703125 C-0.07066406 13.98121094 -0.03585937 13.00539063 0 12 C-1.32 12 -2.64 12 -4 12 C-4 10.02 -4 8.04 -4 6 C-2.68 6 -1.36 6 0 6 C0 4.02 0 2.04 0 0 Z " fill="#1E0FFF" transform="translate(358,277)"/>
<path d="M0 0 C2.31 0 4.62 0 7 0 C7 1.98 7 3.96 7 6 C8.98 6 10.96 6 13 6 C13 7.98 13 9.96 13 12 C11.02 12 9.04 12 7 12 C7 15.63 7 19.26 7 23 C8.98 23 10.96 23 13 23 C13 24.98 13 26.96 13 29 C11.39667209 29.08121924 9.79215974 29.13929134 8.1875 29.1875 C6.84751953 29.23970703 6.84751953 29.23970703 5.48046875 29.29296875 C3 29 3 29 1.1875 27.9375 C-0.65116062 24.93758004 -0.28299327 22.28208875 -0.1875 18.8125 C-0.16042969 17.54019531 -0.13335937 16.26789063 -0.10546875 14.95703125 C-0.07066406 13.98121094 -0.03585937 13.00539063 0 12 C-1.32 12 -2.64 12 -4 12 C-4 10.02 -4 8.04 -4 6 C-2.68 6 -1.36 6 0 6 C0 4.02 0 2.04 0 0 Z " fill="#1E0FFF" transform="translate(269,277)"/>
<path d="M0 0 C2.31 0 4.62 0 7 0 C7 10.89 7 21.78 7 33 C4.69 33 2.38 33 0 33 C0 22.11 0 11.22 0 0 Z " fill="#2113FF" transform="translate(191,273)"/>
<path d="M0 0 C3 0.25 3 0.25 5 2.25 C5.25 5.75 5.25 5.75 5 9.25 C3 11.25 3 11.25 0 11.5 C-3 11.25 -3 11.25 -5 9.25 C-5.25 5.75 -5.25 5.75 -5 2.25 C-3 0.25 -3 0.25 0 0 Z " fill="#F9F9FF" transform="translate(336,288.75)"/>
<path d="M0 0 C3.0625 0.1875 3.0625 0.1875 5.0625 2.1875 C5.3125 5.6875 5.3125 5.6875 5.0625 9.1875 C3.0625 11.1875 3.0625 11.1875 0.0625 11.5 C-0.9275 11.396875 -1.9175 11.29375 -2.9375 11.1875 C-4.9375 8.1875 -4.9375 8.1875 -4.625 4.5625 C-3.74428643 0.23899701 -3.74428643 0.23899701 0 0 Z " fill="#F7F6FF" transform="translate(169.9375,288.8125)"/>
<path d="M0 0 C1.79133978 -0.05391993 3.58313899 -0.09275571 5.375 -0.125 C6.37273437 -0.14820313 7.37046875 -0.17140625 8.3984375 -0.1953125 C11 0 11 0 13 2 C12.46428571 5.53571429 12.46428571 5.53571429 11 7 C9.14712498 7.07226502 7.29166122 7.0838122 5.4375 7.0625 C4.42558594 7.05347656 3.41367187 7.04445313 2.37109375 7.03515625 C1.58863281 7.02355469 0.80617188 7.01195312 0 7 C0 4.69 0 2.38 0 0 Z " fill="#EAE9FF" transform="translate(297,293)"/>
<path d="M0 0 C1.62490954 -0.02698189 3.24994633 -0.04638757 4.875 -0.0625 C5.77992188 -0.07410156 6.68484375 -0.08570313 7.6171875 -0.09765625 C10 0 10 0 12 1 C11.67 2.65 11.34 4.3 11 6 C7.37 6 3.74 6 0 6 C0 4.02 0 2.04 0 0 Z " fill="#F2F1FF" transform="translate(297,281)"/>
<path d="M0 0 C0.66 0 1.32 0 2 0 C2.33 0.99 2.66 1.98 3 3 C3.33 2.01 3.66 1.02 4 0 C4.66 0 5.32 0 6 0 C5.34 2.31 4.68 4.62 4 7 C3.34 7 2.68 7 2 7 C2 6.01 2 5.02 2 4 C1.34 4 0.68 4 0 4 C0 4.99 0 5.98 0 7 C-0.66 7 -1.32 7 -2 7 C-1.34 4.69 -0.68 2.38 0 0 Z " fill="#6157FF" transform="translate(273,320)"/>
<path d="M0 0 C1.65 0.33 3.3 0.66 5 1 C5.33 1.99 5.66 2.98 6 4 C3.36 4 0.72 4 -2 4 C-1.34 2.68 -0.68 1.36 0 0 Z " fill="#EDECFF" transform="translate(215,288)"/>
<path d="M0 0 C1.65 0 3.3 0 5 0 C4.01 0.33 3.02 0.66 2 1 C2 1.66 2 2.32 2 3 C2.66 3.33 3.32 3.66 4 4 C3.34 4 2.68 4 2 4 C2 4.66 2 5.32 2 6 C2.99 6.33 3.98 6.66 5 7 C3.35 7 1.7 7 0 7 C0 4.69 0 2.38 0 0 Z " fill="#5A50FF" transform="translate(225,320)"/>
</svg>
