<?xml version="1.0" standalone="no"?>
<!DOCTYPE svg PUBLIC "-//W3C//DTD SVG 20010904//EN"
 "http://www.w3.org/TR/2001/REC-SVG-20010904/DTD/svg10.dtd">
<svg version="1.0" xmlns="http://www.w3.org/2000/svg"
 width="551.000000pt" height="168.000000pt" viewBox="0 0 551.000000 168.000000"
 preserveAspectRatio="xMidYMid meet">

<g transform="translate(0.000000,168.000000) scale(0.100000,-0.100000)"
fill="#000000" stroke="none">
<path d="M0 840 l0 -840 2755 0 2755 0 0 840 0 840 -2755 0 -2755 0 0 -840z
m724 614 c21 -20 20 -31 -4 -61 -18 -24 -20 -41 -20 -212 l0 -187 273 4 274 4
38 -45 c24 -29 43 -43 54 -40 25 6 44 -22 37 -52 -5 -19 -13 -25 -35 -25 -30
0 -41 14 -41 53 0 12 -13 37 -29 56 l-28 34 -283 -2 -283 -2 7 196 c7 188 6
197 -14 222 -11 14 -20 29 -20 34 0 13 30 39 45 39 7 0 21 -7 29 -16z m-136
-146 c17 -17 15 -43 -3 -58 -13 -11 -16 -35 -14 -129 1 -111 1 -116 -24 -136
-92 -76 -147 -131 -147 -147 0 -10 11 -28 25 -40 27 -23 32 -47 14 -65 -7 -7
3 -19 35 -39 l46 -29 0 -69 c0 -50 5 -74 16 -87 11 -12 14 -27 10 -44 -5 -20
-13 -25 -36 -25 -40 0 -52 41 -21 74 16 17 21 35 21 78 0 56 0 57 -47 90 -27
18 -57 38 -68 44 -21 12 -34 64 -16 64 6 0 11 17 11 38 0 36 7 45 85 117 l86
77 -2 99 c-1 80 -5 104 -20 123 -22 28 -25 62 -6 69 22 9 43 7 55 -5z m1904
-67 l-4 -41 -49 0 -49 0 0 -210 0 -210 -50 0 -50 0 0 210 0 210 -50 0 -50 0 0
40 0 39 148 3 c81 2 149 2 152 1 3 -1 4 -20 2 -42z m466 -168 l2 -213 45 0 45
0 0 -40 0 -40 -100 0 c-88 0 -100 2 -101 18 0 21 0 462 0 480 1 9 16 12 54 10
l52 -3 3 -212z m377 189 c3 -13 3 -33 -1 -44 -6 -19 -12 -20 -70 -15 l-64 6 0
-64 0 -65 40 0 40 0 0 -40 0 -40 -40 0 -40 0 0 -70 0 -70 64 0 c69 0 81 -10
70 -56 -6 -24 -8 -24 -125 -24 l-119 0 0 248 c0 137 2 251 4 253 2 2 56 4 120
4 112 0 115 -1 121 -23z m196 -98 l37 -109 1 112 c1 61 4 114 9 116 4 2 31 2
60 -1 l52 -4 -2 -246 -3 -247 -59 0 -59 0 -34 110 c-19 61 -39 114 -44 120 -5
5 -9 -39 -9 -113 l0 -122 -55 0 -55 0 0 249 0 250 38 3 c78 6 82 2 123 -118z
m499 79 l0 -43 -50 0 -50 0 0 -210 0 -210 -55 0 -55 0 0 209 0 210 -47 3 c-44
3 -48 5 -51 31 -6 52 -5 52 157 52 l151 0 0 -42z m599 33 c45 -24 51 -51 51
-250 l0 -184 -29 -31 c-27 -29 -34 -31 -96 -31 -126 0 -135 17 -135 261 l0
181 34 34 c31 31 40 34 90 34 32 0 69 -6 85 -14z m-1924 -28 c4 -18 29 -124
56 -235 27 -111 49 -209 49 -218 0 -13 -10 -15 -52 -13 l-51 3 -11 45 c-11 44
-12 45 -52 48 l-42 3 -12 -50 -12 -51 -54 0 c-30 0 -54 3 -54 6 0 3 13 58 29
122 17 64 41 169 56 232 14 63 28 121 30 128 3 7 24 12 59 12 53 0 55 -1 61
-32z m1621 17 c33 -23 47 -67 40 -132 -6 -67 -6 -59 0 -181 5 -76 2 -98 -11
-118 -25 -38 -74 -54 -165 -54 l-80 0 0 250 0 250 98 0 c69 0 104 -4 118 -15z
m692 -17 c-3 -32 -4 -33 -55 -36 l-53 -3 0 -215 0 -214 -45 0 -45 0 0 215 0
215 -50 0 -50 0 0 35 0 35 151 0 150 0 -3 -32z m-4142 -373 c5 -12 32 -15 158
-15 l153 0 53 -66 53 -66 131 7 131 7 28 -36 c25 -32 28 -47 34 -134 l6 -97
-98 -93 c-53 -50 -95 -97 -92 -104 8 -22 -13 -48 -37 -48 -30 0 -49 23 -41 50
6 19 11 22 47 24 9 1 57 38 107 84 l91 83 0 94 c0 91 -1 96 -31 129 -16 19
-36 33 -42 31 -7 -2 -64 -6 -127 -9 l-115 -6 -50 64 -50 64 -150 4 c-137 4
-151 3 -163 -14 -19 -26 -50 -23 -64 7 -8 19 -8 28 2 40 16 19 59 20 66 0z
m-272 -61 c9 -8 16 -22 16 -29 0 -8 11 -22 25 -31 24 -16 25 -20 25 -127 l0
-111 93 -95 c74 -76 98 -95 121 -96 35 0 56 -27 40 -53 -21 -33 -73 -22 -74
17 -1 9 -46 63 -100 121 l-100 105 0 104 c0 121 -11 144 -63 134 -34 -7 -60
17 -50 45 13 34 42 41 67 16z m426 -100 c0 -13 -7 -27 -15 -30 -11 -5 -15 -23
-15 -78 0 -72 0 -73 39 -104 43 -35 90 -42 111 -17 19 23 49 18 62 -10 8 -19
8 -28 -2 -40 -16 -19 -59 -20 -66 0 -4 9 -19 15 -37 15 -19 0 -45 12 -72 35
-42 34 -43 36 -50 115 -4 44 -11 80 -15 80 -12 0 -21 31 -15 51 13 39 75 25
75 -17z m-175 -34 c4 -6 0 -22 -9 -35 -9 -13 -16 -41 -16 -62 0 -37 6 -43 166
-181 159 -137 167 -142 210 -142 43 0 44 1 44 33 0 25 9 42 40 72 22 21 40 47
40 56 0 39 52 51 74 17 15 -25 -4 -53 -38 -53 -15 -1 -43 -13 -62 -28 -28 -23
-34 -34 -34 -66 0 -44 -10 -51 -73 -50 -39 0 -53 10 -212 147 -162 140 -170
150 -173 187 -2 22 -9 47 -16 55 -25 30 -26 40 -6 60 16 16 25 18 40 10 10 -5
22 -15 25 -20z m355 -70 c0 -6 50 -10 120 -10 95 0 122 3 126 14 15 38 74 22
74 -19 0 -41 -59 -57 -74 -19 -4 11 -30 14 -122 14 -106 0 -117 -2 -133 -21
-21 -26 -57 -19 -67 13 -9 30 29 62 57 48 10 -6 19 -15 19 -20z m750 -101 l0
-130 -27 3 -28 3 -3 128 -3 127 31 0 30 0 0 -131z m170 55 c67 -111 70 -112
70 -10 0 85 0 86 25 86 l25 0 0 -131 0 -130 -32 3 c-28 3 -38 13 -82 85 l-51
83 -5 -83 c-5 -81 -5 -82 -32 -85 l-28 -3 0 130 0 131 33 0 c29 0 36 -7 77
-76z m330 51 c0 -21 -5 -25 -30 -25 l-30 0 0 -105 0 -105 -25 0 -25 0 0 105 0
105 -30 0 c-25 0 -30 4 -30 25 0 25 1 25 85 25 84 0 85 0 85 -25z m190 0 c0
-23 -4 -25 -45 -25 -43 0 -45 -1 -45 -30 0 -28 2 -30 40 -30 33 0 40 -3 40
-20 0 -17 -7 -20 -40 -20 -38 0 -40 -2 -40 -30 0 -29 2 -30 45 -30 41 0 45 -2
45 -25 0 -24 -2 -25 -75 -25 l-75 0 0 130 0 130 75 0 c73 0 75 -1 75 -25z
m205 0 c32 -31 32 -69 0 -101 l-25 -25 35 -52 c34 -49 34 -52 14 -55 -33 -6
-45 4 -75 57 -15 28 -31 51 -36 51 -4 0 -8 -25 -8 -56 0 -54 0 -55 -27 -52
l-28 3 -3 128 -3 127 66 0 c57 0 69 -3 90 -25z m139 -52 c15 -43 30 -84 35
-91 5 -9 19 18 40 77 31 86 34 91 61 91 l29 0 -29 -77 c-69 -189 -63 -178 -96
-181 -27 -3 -32 1 -41 30 -6 18 -27 77 -46 131 l-36 97 29 0 c27 0 30 -5 54
-77z m256 -54 l0 -130 -27 3 -28 3 -3 114 c-1 63 0 121 2 128 3 7 17 13 31 13
l25 0 0 -131z m210 106 c0 -23 -4 -25 -45 -25 -43 0 -45 -1 -45 -30 0 -28 2
-30 40 -30 33 0 40 -3 40 -20 0 -17 -7 -20 -40 -20 -38 0 -40 -2 -40 -30 0
-29 2 -30 45 -30 41 0 45 -2 45 -25 0 -24 -2 -25 -75 -25 l-75 0 0 130 0 130
75 0 c73 0 75 -1 75 -25z m110 -67 c26 -101 25 -101 61 20 18 61 24 72 43 72
20 0 26 -12 50 -92 l29 -93 25 93 c24 90 26 92 54 92 23 0 29 -4 24 -16 -3 -8
-15 -52 -26 -97 -37 -146 -37 -147 -74 -147 -31 0 -33 2 -58 78 l-25 77 -24
-78 -23 -78 -35 3 -35 3 -26 100 c-45 170 -44 155 -12 155 27 0 29 -3 52 -92z
m563 81 c27 -12 47 -47 47 -80 0 -34 -53 -79 -94 -79 -34 0 -35 -1 -38 -42 -3
-39 -6 -43 -30 -46 l-28 -3 0 130 0 131 60 0 c32 0 70 -5 83 -11z m236 -6 c11
-10 24 -32 27 -50 5 -26 1 -37 -20 -58 l-26 -26 35 -52 c34 -49 34 -52 14 -55
-33 -6 -45 4 -76 57 -15 28 -31 51 -35 51 -5 0 -8 -25 -8 -55 0 -54 0 -55 -30
-55 l-30 0 0 130 0 130 64 0 c46 0 70 -5 85 -17z m241 -8 c0 -23 -3 -25 -51
-25 -49 0 -50 -1 -47 -27 3 -25 7 -28 43 -29 33 0 41 -4 43 -22 3 -20 -1 -22
-42 -22 -44 0 -46 -1 -46 -30 0 -29 1 -30 51 -30 47 0 50 -2 47 -22 -3 -21 -9
-23 -75 -26 l-73 -3 0 131 0 130 75 0 c73 0 75 -1 75 -25z m212 -5 c25 -26 29
-36 24 -63 -9 -46 -37 -68 -90 -74 l-46 -6 0 -43 c0 -40 -2 -44 -25 -44 l-25
0 0 130 0 130 66 0 c60 0 68 -3 96 -30z m336 -82 c22 -62 43 -121 47 -130 6
-15 2 -18 -23 -18 -23 0 -31 5 -36 25 -6 23 -11 25 -61 25 -50 0 -56 -3 -65
-25 -7 -18 -17 -25 -35 -25 -14 0 -25 4 -25 9 0 4 18 57 40 117 22 60 42 115
45 122 2 6 20 12 38 12 l34 0 41 -112z m142 -18 l0 -130 -25 0 -25 0 0 130 0
130 25 0 25 0 0 -130z m-4882 58 c17 -17 15 -57 -3 -64 -10 -4 -15 -20 -15
-47 0 -38 6 -48 72 -114 72 -72 73 -73 126 -73 38 0 54 4 58 15 8 20 60 19 68
-1 11 -28 7 -43 -15 -54 -16 -9 -26 -8 -44 4 -14 9 -46 16 -73 16 -48 0 -50 1
-130 84 -74 75 -82 87 -82 122 0 22 -7 48 -15 58 -19 25 -19 31 1 50 19 19 36
20 52 4z"/>
<path d="M2200 1245 c0 -23 3 -25 50 -25 l50 0 0 -215 0 -215 40 0 40 0 0 215
0 215 50 0 c47 0 50 2 50 25 l0 25 -140 0 -140 0 0 -25z"/>
<path d="M2860 1030 l0 -240 90 0 90 0 0 30 c0 29 -1 30 -50 30 l-50 0 0 210
0 210 -40 0 -40 0 0 -240z"/>
<path d="M3102 1033 l3 -238 108 -3 107 -3 0 31 0 30 -70 0 -71 0 3 83 3 82
43 3 c37 3 42 6 42 27 0 21 -5 24 -42 27 -41 3 -42 4 -46 42 -2 22 -1 54 3 73
l6 33 64 0 c63 0 65 1 65 25 l0 25 -110 0 -110 0 2 -237z"/>
<path d="M3390 1031 l0 -241 40 0 40 0 2 163 3 162 53 -162 53 -163 44 0 45 0
0 240 0 240 -40 0 -40 0 0 -145 c0 -80 -3 -145 -8 -145 -4 0 -27 64 -52 143
l-45 142 -48 3 -47 3 0 -240z"/>
<path d="M3740 1246 c0 -23 5 -25 48 -28 l47 -3 3 -213 2 -213 38 3 37 3 3
213 2 212 50 0 c47 0 50 2 50 25 l0 25 -140 0 -140 0 0 -24z"/>
<path d="M4517 1204 c-4 -4 -7 -80 -7 -169 0 -134 3 -165 15 -175 12 -10 21
-10 41 -2 l24 12 -2 167 -3 168 -30 3 c-17 2 -34 0 -38 -4z"/>
<path d="M2596 1253 c-8 -25 -97 -402 -103 -435 -5 -27 -3 -28 35 -28 40 0 40
0 48 48 l9 47 57 3 56 3 7 -33 c13 -67 14 -68 56 -68 34 0 40 3 35 18 -2 9
-28 117 -58 240 l-53 222 -42 0 c-31 0 -43 -4 -47 -17z m80 -300 c-3 -3 -19
-7 -36 -8 -26 -2 -30 0 -30 24 0 24 10 77 26 141 5 19 11 4 26 -63 11 -49 18
-91 14 -94z"/>
<path d="M2638 1045 c-4 -11 -9 -35 -13 -52 -6 -29 -4 -33 14 -33 16 0 21 6
20 28 -1 15 -4 38 -8 52 -7 23 -8 23 -13 5z"/>
<path d="M4200 1154 l0 -55 38 3 c35 3 37 5 40 41 4 47 -11 67 -49 67 -28 0
-29 -1 -29 -56z"/>
<path d="M4200 944 l0 -85 38 3 37 3 3 68 c3 78 -6 97 -49 97 l-29 0 0 -86z"/>
<path d="M2760 559 c0 -29 2 -31 27 -24 51 12 52 55 2 55 -26 0 -29 -3 -29
-31z"/>
<path d="M4050 555 c0 -32 2 -35 30 -35 34 0 53 25 39 52 -6 11 -21 18 -39 18
-28 0 -30 -3 -30 -35z"/>
<path d="M4280 561 c0 -33 2 -34 38 -25 34 10 26 48 -10 52 -25 3 -28 0 -28
-27z"/>
<path d="M4712 558 c3 -30 6 -33 38 -33 32 0 35 2 35 30 0 28 -3 30 -38 33
-38 3 -38 3 -35 -30z"/>
<path d="M5066 536 c-10 -26 -16 -50 -13 -52 3 -3 18 -4 34 -2 l30 3 -17 49
-16 49 -18 -47z"/>
</g>
</svg>
